<svg xmlns="http://www.w3.org/2000/svg" width="256" height="256"><path fill-opacity=".016" d="M0 128.004v128.004l128.25-.254 128.25-.254.254-127.75L257.008 0H0v128.004m.485.496c0 70.4.119 99.053.265 63.672.146-35.38.146-92.98 0-128C.604 29.153.485 58.1.485 128.5" fill="#1976D2" fill-rule="evenodd"/><path fill-opacity=".37" d="M8.667 3.667C8.3 4.033 8 60.003 8 128.044c0 106.536.2 123.877 1.442 124.908 1.1.913 17.409 1.09 68.75.746 71.706-.48 71.543-.47 93.308-5.82 17.169-4.22 30.184-11.136 42.614-22.644 12.662-11.723 24.342-30.845 28.851-47.234 4.98-18.103 6.92-52.999 4.14-74.5-3.915-30.288-14.273-53.627-31.519-71.02C199.937 16.698 182.447 8.421 156.5 4.516c-8.156-1.227-22.646-1.505-78.583-1.51-37.721-.003-68.884.294-69.25.661M94 89.5V110H76c-12.263 0-18 .345-18 1.084 0 .596 6.529 9.934 14.51 20.75 7.98 10.816 22.842 31.01 33.027 44.874 10.185 13.864 18.885 25.435 19.334 25.712 1.09.674 67.109-89.487 67.124-91.67.003-.412-7.87-.75-17.495-.75H157V69H94v20.5" fill="#1976D2" fill-rule="evenodd"/><path fill-opacity=".291" d="M9 128.05v125.049l70.75-.358 70.75-.358 12-2.657c25.951-5.745 39.651-12.725 54.421-27.726 15.701-15.947 25.034-35.59 29.222-61.5 1.73-10.708 1.75-50.439.03-61-5.405-33.192-17.698-56.999-37.862-73.325-9.287-7.519-24.692-15.344-35.775-18.171C154.683 3.45 145.952 3 75.449 3H9v125.05M94 89.5V110H75.5c-10.175 0-18.487.338-18.47.75.043 1.093 66.943 91.692 67.982 92.065.916.329 4.39-4.247 32.505-42.815C179.231 130.212 192 112.027 192 110.889c0-.489-7.875-.889-17.5-.889H157V69H94v20.5" fill="#1976D2" fill-rule="evenodd"/><path fill-opacity=".982" d="M9.738 3.595C9.332 4.001 9 60.283 9 128.667V253l64.25-.02c67.666-.02 74.243-.36 94.25-4.867 21.989-4.953 36.534-12.934 50.56-27.743 15.256-16.107 24.405-36.448 28.055-62.37 1.84-13.065 1.562-47.453-.481-59.5-4.987-29.419-13.927-48.762-30.102-65.128C200.01 17.666 184.066 9.874 158 5.255c-6.843-1.213-22.048-1.593-78.012-1.952-38.232-.245-69.844-.113-70.25.292m83.929 65.072C93.3 69.033 93 78.194 93 89.024v19.691l-6.147.643c-3.38.353-11.48.642-18 .642-6.519 0-11.853.403-11.853.895 0 .925 63.936 88.238 66.9 91.36 1.958 2.063-.932 5.624 30.643-37.755 33.245-45.673 38.725-53.713 37.246-54.651-.709-.45-8.826-.825-18.039-.834L157 109V68h-31.333c-17.234 0-31.634.3-32 .667" fill="#1976D2" fill-rule="evenodd"/></svg>